<svg id="Layer_1" data-name="Layer 1" xmlns="http://www.w3.org/2000/svg" viewBox="0 0 186.5 39.1"><defs><style>.cls-1{fill:#cd931e;opacity:0.86;}.cls-2{fill:#0088bc;}.cls-3{fill:#0071bc;}.cls-4{fill:#00a99d;}.cls-4,.cls-5{stroke:#fff;stroke-miterlimit:10;stroke-width:5px;}.cls-5{fill:#b3b3b3;}.cls-6{fill:#fff;}</style></defs><title>logo</title><path class="cls-1" d="M34.3,224.5l-2,9.5H27.8L23,210h5.9l1.6,7.8,1.7-7.8h4.1l1.8,7.8,1.5-7.8h5.9l-4.6,24H36.4Z" transform="translate(-23 -201.8)"/><path class="cls-1" d="M55.9,225.7H50.2a6.1,6.1,0,0,0,1,2.3,2.5,2.5,0,0,0,1.7.8,3.5,3.5,0,0,0,3-2.1v3.4c-1.3,2.7-3,4.1-5.3,4.1a5,5,0,0,1-4.5-2.8,14.4,14.4,0,0,1-1.7-7.5,13,13,0,0,1,.9-4.9,6.6,6.6,0,0,1,2.1-3.4,4.2,4.2,0,0,1,2.8-1,3.9,3.9,0,0,1,2,.6A7.6,7.6,0,0,1,54,217a10,10,0,0,1,1.3,3.1,12.6,12.6,0,0,1,.5,2.9A22.6,22.6,0,0,1,55.9,225.7Zm-6-3.3h2.6a6.2,6.2,0,0,0-.4-2.2c-.3-.5-.6-.8-.9-.8s-.7.3-.9.8a4,4,0,0,0-.4,2Z" transform="translate(-23 -201.8)"/><path class="cls-1" d="M57.5,210h5.6v5.6a3.5,3.5,0,0,1,2-.7q2.4,0,3.9,2.7a13.4,13.4,0,0,1,1.5,6.8,14.1,14.1,0,0,1-.7,4.7,10.2,10.2,0,0,1-1.8,3.3,4.3,4.3,0,0,1-2.2,1.3,15.8,15.8,0,0,1-3.7.3H57.5Zm5.6,12.7v4.4h.1a1.8,1.8,0,0,0,1.5-.6c.3-.3.4-.9.4-1.9a4,4,0,0,0-.3-1.7.9.9,0,0,0-.8-.6A1.2,1.2,0,0,0,63.1,222.7Z" transform="translate(-23 -201.8)"/><path class="cls-2" d="M72.5,226.8a5.5,5.5,0,0,0,1.4,2.1,2.4,2.4,0,0,0,1.6.8c.7,0,1-.5,1-1.4a1.6,1.6,0,0,0-.2-1,1.1,1.1,0,0,0-.7-.6l-1.2-.7a4.3,4.3,0,0,1-2-2.2,7.3,7.3,0,0,1-.7-3.5,5.6,5.6,0,0,1,1.4-4.2,5.4,5.4,0,0,1,4-1.5,7.6,7.6,0,0,1,4.6,1.6l-1.3,4.9c-.9-1.4-1.7-2.1-2.5-2.1a.9.9,0,0,0-.7.3,1.9,1.9,0,0,0-.2.8,2.1,2.1,0,0,0,.3,1.2,4.3,4.3,0,0,0,1.4.8,4.8,4.8,0,0,1,2.7,2.5A9.7,9.7,0,0,1,82,228a6.9,6.9,0,0,1-1.3,4.5,4.5,4.5,0,0,1-3.6,1.7,7.9,7.9,0,0,1-2.8-.6,8.5,8.5,0,0,1-3-1.5Z" transform="translate(-23 -201.8)"/><path class="cls-2" d="M94.6,225.7H88.9a6.1,6.1,0,0,0,1,2.3,2.5,2.5,0,0,0,1.7.8,3.5,3.5,0,0,0,3-2.1v3.4c-1.3,2.7-3,4.1-5.3,4.1a5,5,0,0,1-4.5-2.8,14.4,14.4,0,0,1-1.7-7.5A13,13,0,0,1,84,219a6.6,6.6,0,0,1,2.1-3.4,4.2,4.2,0,0,1,2.8-1,3.9,3.9,0,0,1,2,.6,7.6,7.6,0,0,1,1.8,1.8,10,10,0,0,1,1.3,3.1,12.6,12.6,0,0,1,.5,2.9A22.6,22.6,0,0,1,94.6,225.7Zm-6-3.3h2.6a6.2,6.2,0,0,0-.4-2.2c-.3-.5-.6-.8-.9-.8s-.7.3-.9.8a4,4,0,0,0-.4,2Z" transform="translate(-23 -201.8)"/><path class="cls-2" d="M101.8,228.7V234H96.2V215.1h5.6V219c.7-2.7,1.7-4.1,3-4.1a2.1,2.1,0,0,1,1.9,1.3,6.6,6.6,0,0,1,.7,3.4,6.1,6.1,0,0,1-.7,3.2,2.2,2.2,0,0,1-1.9,1.3c-.8,0-1.5-.6-2.2-1.7a5.4,5.4,0,0,0-.7,1.7C101.8,224.8,101.8,226.3,101.8,228.7Z" transform="translate(-23 -201.8)"/><path class="cls-2" d="M112.3,234l-4.8-18.9H113l1.3,4.7,1.3-4.7h5.3L116.2,234Z" transform="translate(-23 -201.8)"/><path class="cls-2" d="M122,234V215.1a3.8,3.8,0,0,0,2.7,1,3.7,3.7,0,0,0,2.8-1V234Zm3.9-24.4c.5,0,.8.3,1.1.8a4.1,4.1,0,0,1,.5,1.9,3.1,3.1,0,0,1-.5,2c-.3.6-.6.8-1.1.8a1.2,1.2,0,0,1-1.1-.8,4,4,0,0,1-.4-2,4.1,4.1,0,0,1,.4-1.9A1.4,1.4,0,0,1,125.9,209.6Z" transform="translate(-23 -201.8)"/><path class="cls-2" d="M139.5,225.2v8.2a7.8,7.8,0,0,1-3.5.8,5.9,5.9,0,0,1-5-2.6,14.2,14.2,0,0,1-1.7-7.4,14.5,14.5,0,0,1,1.5-6.6,5.4,5.4,0,0,1,5-3,7.6,7.6,0,0,1,3.7,1.2v8.3a4.7,4.7,0,0,0-3-1.5,2.1,2.1,0,0,0-1.3.5,1.6,1.6,0,0,0-.4,1.2c0,1.2.6,1.8,1.9,1.8A4.3,4.3,0,0,0,139.5,225.2Z" transform="translate(-23 -201.8)"/><path class="cls-2" d="M152.7,225.7H147a4.9,4.9,0,0,0,1,2.3,2.3,2.3,0,0,0,1.6.8,3.5,3.5,0,0,0,3.1-2.1v3.4c-1.3,2.7-3.1,4.1-5.3,4.1a5,5,0,0,1-4.5-2.8,14.4,14.4,0,0,1-1.7-7.5,15.3,15.3,0,0,1,.8-4.9,8.3,8.3,0,0,1,2.1-3.4,4.5,4.5,0,0,1,2.9-1,3.9,3.9,0,0,1,2,.6,7.6,7.6,0,0,1,1.8,1.8,10,10,0,0,1,1.2,3.1,25.2,25.2,0,0,1,.6,2.9C152.6,223.8,152.7,224.7,152.7,225.7Zm-6-3.3h2.6a9.7,9.7,0,0,0-.4-2.2c-.3-.5-.6-.8-.9-.8s-.7.3-1,.8a5.6,5.6,0,0,0-.3,2Z" transform="translate(-23 -201.8)"/><path class="cls-3" d="M176.9,235.4l-6.6-10.6a6.6,6.6,0,0,1,0-6.9l6.6-10.6a6.2,6.2,0,0,1,5.5-3.1h14a6.2,6.2,0,0,1,5.5,3.1l6.6,10.6a6.6,6.6,0,0,1,0,6.9l-6.6,10.6a6.2,6.2,0,0,1-5.5,3.1h-14A6.2,6.2,0,0,1,176.9,235.4Z" transform="translate(-23 -201.8)"/><path class="cls-4" d="M174.2,204.3h0a17,17,0,0,0-14.7,8.5h0a16.9,16.9,0,0,0,0,17.1h0a17,17,0,0,0,14.7,8.5h0a17.3,17.3,0,0,0,14.8-8.5h0a17.4,17.4,0,0,0,0-17.1h0A17.3,17.3,0,0,0,174.2,204.3Z" transform="translate(-23 -201.8)"/><path class="cls-5" d="M168.7,205.7c-2.9,1.3-7.4,4.8-6.9,7.7,1,6.6,26.9,8.8,28,3.7S178.8,201.1,168.7,205.7Z" transform="translate(-23 -201.8)"/><path class="cls-3" d="M196.5,215.1c.5-3.3,1.1-6.6,1.6-9.8" transform="translate(-23 -201.8)"/><path class="cls-3" d="M158.9,203.6" transform="translate(-23 -201.8)"/><polygon class="cls-6" points="180.7 22.4 177.9 20.9 175.1 22.4 175.6 19.3 173.3 17.1 176.5 16.6 177.8 13.8 179.3 16.6 182.4 17 180.2 19.3 180.7 22.4"/></svg>